<mxfile host="app.diagrams.net" modified="2024-04-04T19:56:53.189Z" agent="Mozilla/5.0 (Windows NT 10.0; Win64; x64) AppleWebKit/537.36 (KHTML, like Gecko) Chrome/123.0.0.0 Safari/537.36" etag="0pSu749EbEtDX0-Qs5n6" version="24.2.2" type="google">
  <diagram id="prtHgNgQTEPvFCAcTncT" name="Page-1">
    <mxGraphModel grid="1" page="1" gridSize="10" guides="1" tooltips="1" connect="1" arrows="1" fold="1" pageScale="1" pageWidth="827" pageHeight="1169" math="0" shadow="0">
      <root>
        <mxCell id="0" />
        <mxCell id="1" parent="0" />
        <mxCell id="dNxyNK7c78bLwvsdeMH5-19" value="EmpleoTotal_Empresas" style="swimlane;html=1;childLayout=stackLayout;resizeParent=1;resizeParentMax=0;horizontal=0;startSize=20;horizontalStack=0;" vertex="1" parent="1">
          <mxGeometry x="80" y="120" width="700" height="370" as="geometry" />
        </mxCell>
        <mxCell id="dNxyNK7c78bLwvsdeMH5-20" value="Usuario" style="swimlane;html=1;startSize=20;horizontal=0;fillColor=none;" vertex="1" parent="dNxyNK7c78bLwvsdeMH5-19">
          <mxGeometry x="20" width="680" height="120" as="geometry" />
        </mxCell>
        <mxCell id="drkc5cuFbPBy3IQ_y348-5" value="" style="edgeStyle=orthogonalEdgeStyle;rounded=0;orthogonalLoop=1;jettySize=auto;html=1;" edge="1" parent="dNxyNK7c78bLwvsdeMH5-20" source="dNxyNK7c78bLwvsdeMH5-23">
          <mxGeometry relative="1" as="geometry">
            <mxPoint x="170" y="60" as="targetPoint" />
          </mxGeometry>
        </mxCell>
        <mxCell id="dNxyNK7c78bLwvsdeMH5-23" value="Inicio" style="ellipse;whiteSpace=wrap;html=1;" vertex="1" parent="dNxyNK7c78bLwvsdeMH5-20">
          <mxGeometry x="50" y="40" width="40" height="40" as="geometry" />
        </mxCell>
        <mxCell id="qtek6atsX7lKXcD13yXT-1" value="publicar ofertas de empleo mediante periódicos o anuncios" style="rounded=0;whiteSpace=wrap;html=1;" vertex="1" parent="dNxyNK7c78bLwvsdeMH5-20">
          <mxGeometry x="170" y="30" width="120" height="60" as="geometry" />
        </mxCell>
        <mxCell id="qtek6atsX7lKXcD13yXT-2" value="recibir postulaciones mediante correo postal&amp;nbsp;&amp;nbsp;" style="rounded=0;whiteSpace=wrap;html=1;" vertex="1" parent="dNxyNK7c78bLwvsdeMH5-20">
          <mxGeometry x="360" y="30" width="120" height="60" as="geometry" />
        </mxCell>
        <mxCell id="qtek6atsX7lKXcD13yXT-3" value="" style="endArrow=classic;startArrow=classic;html=1;rounded=0;entryX=0;entryY=0.5;entryDx=0;entryDy=0;" edge="1" parent="dNxyNK7c78bLwvsdeMH5-20" target="qtek6atsX7lKXcD13yXT-2">
          <mxGeometry width="50" height="50" relative="1" as="geometry">
            <mxPoint x="289" y="70" as="sourcePoint" />
            <mxPoint x="339" y="20" as="targetPoint" />
            <Array as="points">
              <mxPoint x="300" y="60" />
              <mxPoint x="290" y="60" />
            </Array>
          </mxGeometry>
        </mxCell>
        <mxCell id="qtek6atsX7lKXcD13yXT-6" value="organizar hojas de vida por categorías subcategorías&amp;nbsp;" style="rounded=0;whiteSpace=wrap;html=1;" vertex="1" parent="dNxyNK7c78bLwvsdeMH5-20">
          <mxGeometry x="520" y="30" width="120" height="60" as="geometry" />
        </mxCell>
        <mxCell id="qtek6atsX7lKXcD13yXT-12" value="" style="endArrow=classic;html=1;rounded=0;entryX=0;entryY=0.5;entryDx=0;entryDy=0;" edge="1" parent="dNxyNK7c78bLwvsdeMH5-20" target="qtek6atsX7lKXcD13yXT-6">
          <mxGeometry width="50" height="50" relative="1" as="geometry">
            <mxPoint x="470" y="60" as="sourcePoint" />
            <mxPoint x="520" y="10" as="targetPoint" />
          </mxGeometry>
        </mxCell>
        <mxCell id="dNxyNK7c78bLwvsdeMH5-21" value="Busqueda" style="swimlane;html=1;startSize=20;horizontal=0;" vertex="1" parent="dNxyNK7c78bLwvsdeMH5-19">
          <mxGeometry x="20" y="120" width="680" height="130" as="geometry" />
        </mxCell>
        <mxCell id="qtek6atsX7lKXcD13yXT-10" value="" style="endArrow=classic;startArrow=classic;html=1;rounded=0;entryX=0.5;entryY=1;entryDx=0;entryDy=0;exitX=0.5;exitY=0;exitDx=0;exitDy=0;" edge="1" parent="dNxyNK7c78bLwvsdeMH5-21" source="qtek6atsX7lKXcD13yXT-11">
          <mxGeometry width="50" height="50" relative="1" as="geometry">
            <mxPoint x="540" y="20" as="sourcePoint" />
            <mxPoint x="580" y="-30" as="targetPoint" />
          </mxGeometry>
        </mxCell>
        <mxCell id="qtek6atsX7lKXcD13yXT-11" value="comunicarse por teléfono o correos postales&amp;nbsp;" style="rounded=0;whiteSpace=wrap;html=1;" vertex="1" parent="dNxyNK7c78bLwvsdeMH5-21">
          <mxGeometry x="520" y="20" width="120" height="60" as="geometry" />
        </mxCell>
        <mxCell id="qtek6atsX7lKXcD13yXT-15" value="acaba proceso de selección" style="rounded=0;whiteSpace=wrap;html=1;" vertex="1" parent="dNxyNK7c78bLwvsdeMH5-21">
          <mxGeometry x="360" y="20" width="120" height="60" as="geometry" />
        </mxCell>
        <mxCell id="qtek6atsX7lKXcD13yXT-26" value="no" style="text;html=1;align=center;verticalAlign=middle;whiteSpace=wrap;rounded=0;" vertex="1" parent="dNxyNK7c78bLwvsdeMH5-21">
          <mxGeometry x="380" y="90" width="60" height="30" as="geometry" />
        </mxCell>
        <mxCell id="dNxyNK7c78bLwvsdeMH5-22" value="Seleccion" style="swimlane;html=1;startSize=20;horizontal=0;" vertex="1" parent="dNxyNK7c78bLwvsdeMH5-19">
          <mxGeometry x="20" y="250" width="680" height="120" as="geometry" />
        </mxCell>
        <mxCell id="i4BEEurVJVzT_cHxuIfa-24" value="FIN" style="ellipse;whiteSpace=wrap;html=1;fontColor=#000000;rounded=0;" vertex="1" parent="dNxyNK7c78bLwvsdeMH5-22">
          <mxGeometry x="110" y="20" width="40" height="40" as="geometry" />
        </mxCell>
        <mxCell id="qtek6atsX7lKXcD13yXT-18" value="" style="edgeStyle=orthogonalEdgeStyle;rounded=0;orthogonalLoop=1;jettySize=auto;html=1;" edge="1" parent="dNxyNK7c78bLwvsdeMH5-22" source="qtek6atsX7lKXcD13yXT-13" target="qtek6atsX7lKXcD13yXT-14">
          <mxGeometry relative="1" as="geometry" />
        </mxCell>
        <mxCell id="qtek6atsX7lKXcD13yXT-13" value="entrevistar los candidatos&amp;nbsp;" style="rounded=0;whiteSpace=wrap;html=1;" vertex="1" parent="dNxyNK7c78bLwvsdeMH5-22">
          <mxGeometry x="520" y="10" width="120" height="60" as="geometry" />
        </mxCell>
        <mxCell id="qtek6atsX7lKXcD13yXT-23" value="" style="edgeStyle=orthogonalEdgeStyle;rounded=0;orthogonalLoop=1;jettySize=auto;html=1;" edge="1" parent="dNxyNK7c78bLwvsdeMH5-22" source="qtek6atsX7lKXcD13yXT-14" target="qtek6atsX7lKXcD13yXT-20">
          <mxGeometry relative="1" as="geometry" />
        </mxCell>
        <mxCell id="qtek6atsX7lKXcD13yXT-14" value="" style="rhombus;whiteSpace=wrap;html=1;" vertex="1" parent="dNxyNK7c78bLwvsdeMH5-22">
          <mxGeometry x="380" width="80" height="80" as="geometry" />
        </mxCell>
        <mxCell id="qtek6atsX7lKXcD13yXT-24" value="" style="edgeStyle=orthogonalEdgeStyle;rounded=0;orthogonalLoop=1;jettySize=auto;html=1;" edge="1" parent="dNxyNK7c78bLwvsdeMH5-22" source="qtek6atsX7lKXcD13yXT-20" target="i4BEEurVJVzT_cHxuIfa-24">
          <mxGeometry relative="1" as="geometry" />
        </mxCell>
        <mxCell id="qtek6atsX7lKXcD13yXT-20" value="continuar con el procesode eleccion" style="rounded=1;whiteSpace=wrap;html=1;" vertex="1" parent="dNxyNK7c78bLwvsdeMH5-22">
          <mxGeometry x="210" y="10" width="120" height="60" as="geometry" />
        </mxCell>
        <mxCell id="qtek6atsX7lKXcD13yXT-25" value="si&amp;nbsp;" style="text;html=1;align=center;verticalAlign=middle;whiteSpace=wrap;rounded=0;" vertex="1" parent="dNxyNK7c78bLwvsdeMH5-22">
          <mxGeometry x="330" y="20" width="60" height="30" as="geometry" />
        </mxCell>
        <mxCell id="qtek6atsX7lKXcD13yXT-17" value="" style="edgeStyle=orthogonalEdgeStyle;rounded=0;orthogonalLoop=1;jettySize=auto;html=1;" edge="1" parent="dNxyNK7c78bLwvsdeMH5-19" source="qtek6atsX7lKXcD13yXT-14" target="qtek6atsX7lKXcD13yXT-15">
          <mxGeometry relative="1" as="geometry" />
        </mxCell>
        <mxCell id="qtek6atsX7lKXcD13yXT-21" value="" style="edgeStyle=orthogonalEdgeStyle;rounded=0;orthogonalLoop=1;jettySize=auto;html=1;" edge="1" parent="dNxyNK7c78bLwvsdeMH5-19" source="qtek6atsX7lKXcD13yXT-15" target="qtek6atsX7lKXcD13yXT-2">
          <mxGeometry relative="1" as="geometry" />
        </mxCell>
        <mxCell id="qtek6atsX7lKXcD13yXT-22" value="" style="edgeStyle=orthogonalEdgeStyle;rounded=0;orthogonalLoop=1;jettySize=auto;html=1;" edge="1" parent="dNxyNK7c78bLwvsdeMH5-19" source="qtek6atsX7lKXcD13yXT-11" target="qtek6atsX7lKXcD13yXT-13">
          <mxGeometry relative="1" as="geometry" />
        </mxCell>
      </root>
    </mxGraphModel>
  </diagram>
</mxfile>
